<svg xmlns="http://www.w3.org/2000/svg" version="1.1" xmlns:xlink="http://www.w3.org/1999/xlink" xmlns:svgjs="http://svgjs.com/svgjs" width="1440" height="560" preserveAspectRatio="none" viewBox="0 0 1440 560"><g mask="url(&quot;#SvgjsMask1043&quot;)" fill="none"><rect width="1440" height="560" x="0" y="0" fill="#0e2a47"></rect><circle r="58.89506878235567" cx="950.73" cy="227.68" stroke="#e73635" stroke-width="1" stroke-dasharray="3, 2"></circle><circle r="46.666666666666664" cx="240.91" cy="524.11" stroke="#037b0b" stroke-width="1.73"></circle><rect width="240" height="240" clip-path="url(&quot;#SvgjsClipPath1044&quot;)" x="914.33" y="39.55" fill="url(#SvgjsPattern1045)" transform="rotate(225.2, 1034.33, 159.55)"></rect><rect width="129.96" height="129.96" clip-path="url(&quot;#SvgjsClipPath1046&quot;)" x="1072.18" y="305.47" fill="url(#SvgjsPattern1047)" transform="rotate(340.61, 1137.16, 370.45)"></rect><circle r="46.666666666666664" cx="935.89" cy="216.55" stroke="#d3b714" stroke-width="1" stroke-dasharray="4, 4"></circle><path d="M1000.01 481.61a5.6 5.6 0 1 0-11.18 0.67 5.6 5.6 0 1 0 11.18-0.67zM984.04 482.56a5.6 5.6 0 1 0-11.18 0.66 5.6 5.6 0 1 0 11.18-0.66zM968.07 483.51a5.6 5.6 0 1 0-11.18 0.66 5.6 5.6 0 1 0 11.18-0.66zM952.1 484.46a5.6 5.6 0 1 0-11.19 0.66 5.6 5.6 0 1 0 11.19-0.66zM1031.01 463.74a5.6 5.6 0 1 0-11.18 0.67 5.6 5.6 0 1 0 11.18-0.67zM1015.03 464.69a5.6 5.6 0 1 0-11.18 0.67 5.6 5.6 0 1 0 11.18-0.67zM999.06 465.64a5.6 5.6 0 1 0-11.18 0.66 5.6 5.6 0 1 0 11.18-0.66zM983.09 466.59a5.6 5.6 0 1 0-11.18 0.66 5.6 5.6 0 1 0 11.18-0.66z" stroke="#e73635" stroke-width="2.94"></path><path d="M245.89 547.62 L402.18 574.98L415.59758337187 469.73741662812995z" stroke="#037b0b" stroke-width="1.61" stroke-dasharray="3, 3"></path><circle r="74.88313427868033" cx="1282.46" cy="438.86" fill="#d3b714"></circle><path d="M73.67 430.2a5.6 5.6 0 1 0-3.29-10.7 5.6 5.6 0 1 0 3.29 10.7zM68.97 414.91a5.6 5.6 0 1 0-3.28-10.71 5.6 5.6 0 1 0 3.28 10.71zM64.28 399.61a5.6 5.6 0 1 0-3.29-10.7 5.6 5.6 0 1 0 3.29 10.7zM59.58 384.32a5.6 5.6 0 1 0-3.29-10.71 5.6 5.6 0 1 0 3.29 10.71zM98.36 456.1a5.6 5.6 0 1 0-3.29-10.71 5.6 5.6 0 1 0 3.29 10.71zM93.66 440.8a5.6 5.6 0 1 0-3.29-10.7 5.6 5.6 0 1 0 3.29 10.7zM88.96 425.51a5.6 5.6 0 1 0-3.28-10.71 5.6 5.6 0 1 0 3.28 10.71zM84.27 410.21a5.6 5.6 0 1 0-3.29-10.7 5.6 5.6 0 1 0 3.29 10.7z" stroke="#037b0b" stroke-width="1" stroke-dasharray="2, 2"></path><rect width="336" height="336" clip-path="url(&quot;#SvgjsClipPath1048&quot;)" x="925.18" y="320.82" fill="url(#SvgjsPattern1049)" transform="rotate(298.99, 1093.18, 488.82)"></rect><path d="M527.84 361.67a5.6 5.6 0 1 0 1.51 11.1 5.6 5.6 0 1 0-1.51-11.1zM530 377.52a5.6 5.6 0 1 0 1.51 11.1 5.6 5.6 0 1 0-1.51-11.1zM532.16 393.38a5.6 5.6 0 1 0 1.51 11.09 5.6 5.6 0 1 0-1.51-11.09zM534.31 409.23a5.6 5.6 0 1 0 1.51 11.1 5.6 5.6 0 1 0-1.51-11.1zM507.67 332.12a5.6 5.6 0 1 0 1.51 11.1 5.6 5.6 0 1 0-1.51-11.1zM509.83 347.97a5.6 5.6 0 1 0 1.51 11.1 5.6 5.6 0 1 0-1.51-11.1zM511.99 363.83a5.6 5.6 0 1 0 1.51 11.09 5.6 5.6 0 1 0-1.51-11.09zM514.14 379.68a5.6 5.6 0 1 0 1.51 11.1 5.6 5.6 0 1 0-1.51-11.1zM487.5 302.57a5.6 5.6 0 1 0 1.51 11.1 5.6 5.6 0 1 0-1.51-11.1zM489.66 318.42a5.6 5.6 0 1 0 1.51 11.1 5.6 5.6 0 1 0-1.51-11.1zM491.82 334.28a5.6 5.6 0 1 0 1.51 11.09 5.6 5.6 0 1 0-1.51-11.09zM493.98 350.13a5.6 5.6 0 1 0 1.51 11.1 5.6 5.6 0 1 0-1.51-11.1z" stroke="#037b0b" stroke-width="2.36"></path><circle r="46.666666666666664" cx="950.6" cy="474.4" stroke="#e73635" stroke-width="1" stroke-dasharray="3, 2"></circle></g><defs><mask id="SvgjsMask1043"><rect width="1440" height="560" fill="#ffffff"></rect></mask><pattern x="0" y="0" width="240" height="6" patternUnits="userSpaceOnUse" id="SvgjsPattern1045"><rect width="240" height="3" x="0" y="0" fill="#d3b714"></rect><rect width="240" height="3" x="0" y="3" fill="rgba(0, 0, 0, 0)"></rect></pattern><clipPath id="SvgjsClipPath1044"><circle r="60" cx="1034.33" cy="159.55"></circle></clipPath><pattern x="0" y="0" width="7.22" height="7.22" patternUnits="userSpaceOnUse" id="SvgjsPattern1047"><path d="M0 7.22L3.61 0L7.22 7.22" stroke="#d3b714" fill="none"></path></pattern><clipPath id="SvgjsClipPath1046"><circle r="32.49" cx="1137.16" cy="370.45"></circle></clipPath><pattern x="0" y="0" width="6" height="6" patternUnits="userSpaceOnUse" id="SvgjsPattern1049"><path d="M0 6L3 0L6 6" stroke="#037b0b" fill="none"></path></pattern><clipPath id="SvgjsClipPath1048"><circle r="84" cx="1093.18" cy="488.82"></circle></clipPath></defs></svg>